<svg width="42" height="42" viewBox="0 0 42 42" fill="none" xmlns="http://www.w3.org/2000/svg">
<path d="M34.6325 26.1275C31.0275 29.715 25.865 30.8175 21.3325 29.4L13.09 37.625C12.495 38.2375 11.3225 38.605 10.4825 38.4825L6.6675 37.9575C5.4075 37.7825 4.235 36.5925 4.0425 35.3325L3.5175 31.5175C3.395 30.6775 3.7975 29.505 4.375 28.91L12.6 20.685C11.2 16.135 12.285 10.9725 15.89 7.385C21.0525 2.2225 29.435 2.2225 34.615 7.385C39.795 12.5475 39.795 20.965 34.6325 26.1275Z" stroke="white" stroke-width="1.5" stroke-miterlimit="10" stroke-linecap="round" stroke-linejoin="round"/>
<path d="M12.0575 30.6075L16.0825 34.6325" stroke="white" stroke-width="1.5" stroke-miterlimit="10" stroke-linecap="round" stroke-linejoin="round"/>
<path d="M25.375 19.25C26.8247 19.25 28 18.0747 28 16.625C28 15.1753 26.8247 14 25.375 14C23.9253 14 22.75 15.1753 22.75 16.625C22.75 18.0747 23.9253 19.25 25.375 19.25Z" stroke="white" stroke-width="1.5" stroke-linecap="round" stroke-linejoin="round"/>
</svg>
