<svg width="366" height="321" viewBox="0 0 366 321" fill="none" xmlns="http://www.w3.org/2000/svg">
<path d="M2.028 314V295.67H10.036C12.0467 295.67 13.598 296.147 14.69 297.1C15.7993 298.053 16.354 299.379 16.354 301.078C16.354 302.205 16.1027 303.167 15.6 303.964C15.1147 304.761 14.4127 305.377 13.494 305.81C12.5753 306.226 11.492 306.434 10.244 306.434L10.608 305.94H11.492C12.22 305.94 12.87 306.131 13.442 306.512C14.014 306.893 14.482 307.474 14.846 308.254L17.524 314H13.832L11.128 308.046C10.8853 307.439 10.5127 307.041 10.01 306.85C9.52467 306.659 8.93533 306.564 8.242 306.564H5.382V314H2.028ZM5.382 304.094H9.49C10.6687 304.094 11.5613 303.851 12.168 303.366C12.792 302.863 13.104 302.135 13.104 301.182C13.104 300.229 12.792 299.509 12.168 299.024C11.5613 298.539 10.6687 298.296 9.49 298.296H5.382V304.094ZM20.2839 314V295.67H23.6379V303.314H33.0239V295.67H36.3779V314H33.0239V306.096H23.6379V314H20.2839ZM40.4186 314V295.67H48.4266C50.4373 295.67 51.9886 296.147 53.0806 297.1C54.19 298.053 54.7446 299.379 54.7446 301.078C54.7446 302.205 54.4933 303.167 53.9906 303.964C53.5053 304.761 52.8033 305.377 51.8846 305.81C50.966 306.226 49.8826 306.434 48.6346 306.434L48.9986 305.94H49.8826C50.6106 305.94 51.2606 306.131 51.8326 306.512C52.4046 306.893 52.8726 307.474 53.2366 308.254L55.9146 314H52.2226L49.5186 308.046C49.276 307.439 48.9033 307.041 48.4006 306.85C47.9153 306.659 47.326 306.564 46.6326 306.564H43.7726V314H40.4186ZM43.7726 304.094H47.8806C49.0593 304.094 49.952 303.851 50.5586 303.366C51.1826 302.863 51.4946 302.135 51.4946 301.182C51.4946 300.229 51.1826 299.509 50.5586 299.024C49.952 298.539 49.0593 298.296 47.8806 298.296H43.7726V304.094ZM74.3373 314.26C72.4306 314.26 70.7926 313.879 69.4233 313.116C68.0713 312.336 67.0313 311.244 66.3033 309.84C65.5753 308.419 65.2113 306.746 65.2113 304.822C65.2113 302.898 65.5753 301.234 66.3033 299.83C67.0313 298.426 68.0713 297.343 69.4233 296.58C70.7926 295.8 72.4306 295.41 74.3373 295.41C75.6199 295.41 76.7726 295.592 77.7953 295.956C78.8353 296.32 79.7279 296.857 80.4733 297.568L79.3813 300.22C78.5666 299.561 77.7779 299.093 77.0153 298.816C76.2699 298.521 75.4119 298.374 74.4413 298.374C72.5866 298.374 71.1653 298.937 70.1773 300.064C69.2066 301.173 68.7213 302.759 68.7213 304.822C68.7213 306.885 69.2066 308.479 70.1773 309.606C71.1653 310.733 72.5866 311.296 74.4413 311.296C75.4119 311.296 76.2699 311.157 77.0153 310.88C77.7779 310.585 78.5666 310.1 79.3813 309.424L80.4733 312.076C79.7279 312.769 78.8353 313.307 77.7953 313.688C76.7726 314.069 75.6199 314.26 74.3373 314.26ZM82.4261 304.822C82.4261 302.898 82.7728 301.234 83.4661 299.83C84.1768 298.426 85.1908 297.343 86.5081 296.58C87.8254 295.8 89.3941 295.41 91.2141 295.41C93.0168 295.41 94.5768 295.8 95.8941 296.58C97.2114 297.343 98.2254 298.426 98.9361 299.83C99.6641 301.234 100.028 302.889 100.028 304.796C100.028 306.72 99.6641 308.393 98.9361 309.814C98.2254 311.218 97.2114 312.31 95.8941 313.09C94.5768 313.87 93.0168 314.26 91.2141 314.26C89.3941 314.26 87.8254 313.87 86.5081 313.09C85.2081 312.31 84.2028 311.218 83.4921 309.814C82.7814 308.393 82.4261 306.729 82.4261 304.822ZM85.9361 304.822C85.9361 306.885 86.3781 308.497 87.2621 309.658C88.1461 310.819 89.4634 311.4 91.2141 311.4C92.9128 311.4 94.2214 310.819 95.1401 309.658C96.0588 308.497 96.5181 306.885 96.5181 304.822C96.5181 302.742 96.0588 301.13 95.1401 299.986C94.2388 298.842 92.9301 298.27 91.2141 298.27C89.4634 298.27 88.1461 298.842 87.2621 299.986C86.3781 301.13 85.9361 302.742 85.9361 304.822ZM103.489 314V295.67H106.011L116.645 309.424H115.969V295.67H119.089V314H116.567L105.959 300.246H106.609V314H103.489ZM129.512 314.26C128.039 314.26 126.678 314.078 125.43 313.714C124.199 313.333 123.142 312.813 122.258 312.154L123.298 309.528C123.887 309.944 124.503 310.299 125.144 310.594C125.785 310.871 126.47 311.088 127.198 311.244C127.926 311.383 128.697 311.452 129.512 311.452C130.881 311.452 131.869 311.227 132.476 310.776C133.083 310.325 133.386 309.736 133.386 309.008C133.386 308.367 133.178 307.881 132.762 307.552C132.346 307.205 131.601 306.919 130.526 306.694L127.588 306.096C125.907 305.749 124.65 305.169 123.818 304.354C122.986 303.539 122.57 302.447 122.57 301.078C122.57 299.934 122.873 298.937 123.48 298.088C124.087 297.239 124.936 296.58 126.028 296.112C127.12 295.644 128.394 295.41 129.85 295.41C131.15 295.41 132.355 295.601 133.464 295.982C134.573 296.346 135.501 296.875 136.246 297.568L135.206 300.064C134.461 299.44 133.646 298.981 132.762 298.686C131.878 298.374 130.89 298.218 129.798 298.218C128.567 298.218 127.605 298.461 126.912 298.946C126.236 299.414 125.898 300.064 125.898 300.896C125.898 301.537 126.106 302.049 126.522 302.43C126.955 302.811 127.683 303.106 128.706 303.314L131.618 303.886C133.351 304.233 134.634 304.805 135.466 305.602C136.298 306.382 136.714 307.439 136.714 308.774C136.714 309.866 136.419 310.828 135.83 311.66C135.241 312.475 134.409 313.116 133.334 313.584C132.259 314.035 130.985 314.26 129.512 314.26ZM139.276 304.822C139.276 302.898 139.622 301.234 140.316 299.83C141.026 298.426 142.04 297.343 143.358 296.58C144.675 295.8 146.244 295.41 148.064 295.41C149.866 295.41 151.426 295.8 152.744 296.58C154.061 297.343 155.075 298.426 155.786 299.83C156.514 301.234 156.878 302.889 156.878 304.796C156.878 306.72 156.514 308.393 155.786 309.814C155.075 311.218 154.061 312.31 152.744 313.09C151.426 313.87 149.866 314.26 148.064 314.26C146.244 314.26 144.675 313.87 143.358 313.09C142.058 312.31 141.052 311.218 140.342 309.814C139.631 308.393 139.276 306.729 139.276 304.822ZM142.786 304.822C142.786 306.885 143.228 308.497 144.112 309.658C144.996 310.819 146.313 311.4 148.064 311.4C149.762 311.4 151.071 310.819 151.99 309.658C152.908 308.497 153.368 306.885 153.368 304.822C153.368 302.742 152.908 301.13 151.99 299.986C151.088 298.842 149.78 298.27 148.064 298.27C146.313 298.27 144.996 298.842 144.112 299.986C143.228 301.13 142.786 302.742 142.786 304.822ZM160.339 314V295.67H163.693V311.166H172.325V314H160.339ZM182.022 314V295.67H185.376V314H182.022ZM189.411 314V295.67H191.933L202.567 309.424H201.891V295.67H205.011V314H202.489L191.881 300.246H192.531V314H189.411ZM209.038 314V295.67H215.694C217.791 295.67 219.559 296.034 220.998 296.762C222.454 297.473 223.554 298.513 224.3 299.882C225.045 301.234 225.418 302.881 225.418 304.822C225.418 306.746 225.045 308.393 224.3 309.762C223.554 311.131 222.454 312.18 220.998 312.908C219.559 313.636 217.791 314 215.694 314H209.038ZM212.392 311.218H215.486C217.704 311.218 219.351 310.689 220.426 309.632C221.5 308.575 222.038 306.971 222.038 304.822C222.038 302.655 221.5 301.052 220.426 300.012C219.351 298.955 217.704 298.426 215.486 298.426H212.392V311.218ZM228.842 314V295.67H232.196V314H228.842ZM234.203 314L242.497 295.67H245.305L253.703 314H250.297L248.061 308.852L249.413 309.762H238.415L239.819 308.852L237.583 314H234.203ZM243.875 299.258L240.209 307.942L239.533 307.136H248.269L247.723 307.942L243.979 299.258H243.875ZM262.866 314V295.67H271.004C273.015 295.67 274.549 296.155 275.606 297.126C276.663 298.097 277.192 299.431 277.192 301.13C277.192 302.811 276.663 304.146 275.606 305.134C274.549 306.122 273.015 306.616 271.004 306.616H266.22V314H262.866ZM266.22 303.964H270.614C271.723 303.964 272.555 303.721 273.11 303.236C273.665 302.733 273.942 302.031 273.942 301.13C273.942 300.229 273.665 299.535 273.11 299.05C272.555 298.547 271.723 298.296 270.614 298.296H266.22V303.964ZM286.11 314L277.946 295.67H281.56L288.138 311.062H287.046L293.624 295.67H297.108L288.944 314H286.11ZM303.617 314V298.426H297.559V295.67H313.029V298.426H306.971V314H303.617ZM313.099 314V310.386H316.739V314H313.099ZM320.173 314V295.67H323.527V311.166H332.159V314H320.173ZM335.66 314V298.426H329.602V295.67H345.072V298.426H339.014V314H335.66ZM347.442 314V295.67H354.098C356.195 295.67 357.963 296.034 359.402 296.762C360.858 297.473 361.959 298.513 362.704 299.882C363.449 301.234 363.822 302.881 363.822 304.822C363.822 306.746 363.449 308.393 362.704 309.762C361.959 311.131 360.858 312.18 359.402 312.908C357.963 313.636 356.195 314 354.098 314H347.442ZM350.796 311.218H353.89C356.109 311.218 357.755 310.689 358.83 309.632C359.905 308.575 360.442 306.971 360.442 304.822C360.442 302.655 359.905 301.052 358.83 300.012C357.755 298.955 356.109 298.426 353.89 298.426H350.796V311.218Z" fill="white"/>
<rect x="74.6075" y="60.3228" width="12.729" height="127.29" fill="white"/>
<path d="M161.164 42.5021L173.893 34.8647V238.528H161.164V42.5021Z" fill="white"/>
<path d="M165.047 129.059L163.71 116.33H199.351V129.059H165.047Z" fill="white"/>
<path d="M201.897 202.887L189.168 210.524V6.86086L201.897 9.40665V202.887Z" fill="white"/>
<path d="M102.611 168.614L115.34 174.883V73.0516L102.611 74.2927V168.614Z" fill="white"/>
<path d="M133.161 123.968L145.89 117.162V55.2312L133.161 56.1238V123.968Z" fill="white"/>
<path d="M133.161 187.18L145.89 190.158V141.788L133.161 142.377V187.18Z" fill="white"/>
<path d="M138.929 153.228L145.89 141.788L106.642 118.876L106.642 134.151L138.929 153.228Z" fill="white"/>
<path d="M112.118 135.974L105.157 124.534L144.405 101.622L144.405 116.897L112.118 135.974Z" fill="white"/>
<path d="M109.577 85.0556L102.611 73.6186L146.282 48.0371L145.514 63.7755L109.577 85.0556Z" fill="white"/>
<path d="M259.962 168.738L247.233 175.007V73.1754L259.962 74.4165V168.738Z" fill="white"/>
<path d="M229.413 124.091L216.684 117.285V55.3547L229.413 56.2474V124.091Z" fill="white"/>
<path d="M229.413 187.304L216.684 190.282V141.912L229.413 142.501V187.304Z" fill="white"/>
<path d="M223.645 153.352L216.684 141.912L255.932 119L255.931 134.274L223.645 153.352Z" fill="white"/>
<path d="M250.456 136.098L257.417 124.658L218.169 101.746L218.169 117.02L250.456 136.098Z" fill="white"/>
<path d="M252.997 85.1791L259.962 73.7421L216.292 48.1607L217.06 63.899L252.997 85.1791Z" fill="white"/>
<rect x="278.271" y="60.3228" width="12.729" height="127.29" fill="white"/>
<path d="M175.166 1.76961L175.166 18.3172L80.5545 71.5879L74 60.6762L175.166 1.76961Z" fill="white"/>
<path d="M278.271 177.429L291 186.339L189.168 244.893L189.168 228.345L278.271 177.429Z" fill="white"/>
<path d="M283.78 71.0435L290.335 60.1319L189.168 1.76967L189.168 9.40704L189.168 15.7715L283.78 71.0435Z" fill="white"/>
<path d="M173.893 244.892L173.894 228.345L81.1624 177.429L74.6078 188.341L173.893 244.892Z" fill="white"/>
</svg>
