<svg width="42" height="42" viewBox="0 0 42 42" fill="none" xmlns="http://www.w3.org/2000/svg">
<path d="M30.6775 13.5975C30.555 13.58 30.4325 13.58 30.31 13.5975C27.5975 13.51 25.445 11.2875 25.445 8.5575C25.445 5.775 27.7025 3.5 30.5025 3.5C33.285 3.5 35.56 5.7575 35.56 8.5575C35.5425 11.2875 33.39 13.51 30.6775 13.5975Z" fill="white"/>
<path d="M36.3825 25.725C34.4225 27.0375 31.675 27.5275 29.1375 27.195C29.8025 25.76 30.1525 24.1675 30.17 22.4875C30.17 20.7375 29.785 19.075 29.05 17.6225C31.64 17.2725 34.3875 17.7625 36.365 19.075C39.13 20.895 39.13 23.8875 36.3825 25.725Z" fill="white"/>
<path d="M11.27 13.5975C11.3925 13.58 11.515 13.58 11.6375 13.5975C14.35 13.51 16.5025 11.2875 16.5025 8.5575C16.5025 5.7575 14.245 3.5 11.445 3.5C8.6625 3.5 6.405 5.7575 6.405 8.5575C6.405 11.2875 8.5575 13.51 11.27 13.5975Z" fill="white"/>
<path d="M11.4625 22.4875C11.4625 24.185 11.83 25.795 12.495 27.2475C10.0275 27.51 7.45499 26.985 5.56499 25.7425C2.79999 23.905 2.79999 20.9125 5.56499 19.075C7.43749 17.815 10.08 17.3075 12.565 17.5875C11.8475 19.0575 11.4625 20.72 11.4625 22.4875Z" fill="white"/>
<path d="M21.21 27.7725C21.07 27.755 20.9125 27.755 20.755 27.7725C17.535 27.6675 14.9625 25.025 14.9625 21.77C14.98 18.445 17.6575 15.75 21 15.75C24.325 15.75 27.02 18.445 27.02 21.77C27.0025 25.025 24.4475 27.6675 21.21 27.7725Z" fill="white"/>
<path d="M15.5225 31.395C12.88 33.1625 12.88 36.0675 15.5225 37.8175C18.5325 39.83 23.4675 39.83 26.4775 37.8175C29.12 36.05 29.12 33.145 26.4775 31.395C23.485 29.3825 18.55 29.3825 15.5225 31.395Z" fill="white"/>
</svg>
