<svg width="753" height="111" viewBox="0 0 753 111" fill="none" xmlns="http://www.w3.org/2000/svg">
<line x1="0.00664891" y1="93.5" x2="752.007" y2="95.5" stroke="#FFCA05" stroke-width="5"/>
<path d="M699.667 71.6666C700.6 71.6666 701.333 72.4 701.333 73.3333V76.6666C701.333 82.2 696.867 86.6666 691.333 86.6666C691.333 81.1666 686.833 76.6666 681.333 76.6666C675.833 76.6666 671.333 81.1666 671.333 86.6666H664.667C664.667 81.1666 660.167 76.6666 654.667 76.6666C649.167 76.6666 644.667 81.1666 644.667 86.6666C639.133 86.6666 634.667 82.2 634.667 76.6666V70C634.667 68.1666 636.167 66.6666 638 66.6666H669.667C674.267 66.6666 678 62.9333 678 58.3333V40C678 38.1666 679.5 36.6666 681.333 36.6666H684.133C686.533 36.6666 688.733 37.9666 689.933 40.0333L692.067 43.7666C692.367 44.3 691.967 45 691.333 45C686.733 45 683 48.7333 683 53.3333V63.3333C683 67.9333 686.733 71.6666 691.333 71.6666H699.667Z" fill="#1C2C5E"/>
<path d="M654.667 93.3333C658.349 93.3333 661.333 90.3486 661.333 86.6667C661.333 82.9848 658.349 80 654.667 80C650.985 80 648 82.9848 648 86.6667C648 90.3486 650.985 93.3333 654.667 93.3333Z" fill="#1C2C5E"/>
<path d="M681.333 93.3333C685.015 93.3333 688 90.3486 688 86.6667C688 82.9848 685.015 80 681.333 80C677.651 80 674.667 82.9848 674.667 86.6667C674.667 90.3486 677.651 93.3333 681.333 93.3333Z" fill="#1C2C5E"/>
<path d="M701.333 61.7667V66.6667H691.333C689.5 66.6667 688 65.1667 688 63.3333V53.3333C688 51.5 689.5 50 691.333 50H695.633L700.467 58.4667C701.033 59.4667 701.333 60.6 701.333 61.7667Z" fill="#1C2C5E"/>
<path d="M671.6 26.6666H646.967C641 26.6666 636 30.9333 634.9 36.6H649.467C650.733 36.6 651.733 37.6333 651.733 38.9C651.733 40.1666 650.733 41.1666 649.467 41.1666H634.667V45.7666H643.333C644.6 45.7666 645.633 46.8 645.633 48.0666C645.633 49.3333 644.6 50.3333 643.333 50.3333H634.667V54.9333H637.233C638.5 54.9333 639.533 55.9666 639.533 57.2333C639.533 58.5 638.5 59.5 637.233 59.5H634.667V60.2666C634.667 62.1 636.167 63.6 638 63.6H668.5C671.9 63.6 674.667 60.8333 674.667 57.4333V29.7333C674.667 28.0333 673.3 26.6666 671.6 26.6666Z" fill="#1C2C5E"/>
<path d="M634.9 36.6H634.4H631.133C629.867 36.6 628.833 37.6333 628.833 38.9C628.833 40.1666 629.867 41.1666 631.133 41.1666H634.167H634.667V38.9666C634.667 38.1666 634.767 37.3666 634.9 36.6Z" fill="#1C2C5E"/>
<path d="M634.167 45.7666H631.133C629.867 45.7666 628.833 46.7999 628.833 48.0666C628.833 49.3333 629.867 50.3333 631.133 50.3333H634.167H634.667V45.7666H634.167Z" fill="#1C2C5E"/>
<path d="M634.167 54.9333H631.133C629.867 54.9333 628.833 55.9667 628.833 57.2334C628.833 58.5 629.867 59.5 631.133 59.5H634.167H634.667V54.9333H634.167Z" fill="#1C2C5E"/>
<path d="M588.2 75.4564L585.638 58.7039L585.046 54.9866C584.99 54.3929 585.337 53.6264 585.846 53.3086L594.498 47.9062C597.212 46.2113 599.182 42.1912 598.907 38.9829C598.802 37.8698 598.166 36.852 597.212 36.2686C594.468 34.6421 589.963 34.6649 587.248 36.3598L578.597 41.7622C578.088 42.0799 577.247 42.0549 576.738 41.7437L559.748 29.9529C557.9 28.6307 554.766 28.5835 552.844 29.784L549.111 32.1144C546.708 33.6151 546.651 36.1661 549.007 37.7995L563.959 48.1513C565.128 48.9539 565.099 50.2294 563.883 50.9886L560.745 52.9483L555.656 56.1261C555.005 56.5322 553.843 56.7472 553.108 56.5773L542.424 54.1313C541.322 53.8764 539.799 54.3952 539.032 55.3065L535.981 58.9799C534.631 60.5304 535.022 62.9191 536.784 63.9799L546.641 67.1781C548.153 67.6487 549.195 69.3168 548.954 70.882L547.501 81.1422C547.709 83.1739 549.655 84.5916 551.676 84.1155L556.316 82.9867C557.443 82.7151 558.606 81.5567 558.861 80.4544L561.353 69.7813C561.505 69.0181 562.209 68.068 562.859 67.6619L571.087 62.5244C572.302 61.7652 573.415 62.2886 573.669 63.702L576.407 81.6808C576.84 84.5147 579.158 85.5827 581.561 84.082L585.293 81.7516C587.216 80.5511 588.549 77.7144 588.2 75.4564Z" fill="#1C2C5E"/>
<path d="M504.1 63.8667L502.733 70.0667C500.367 80.7333 492 88.3333 479.933 88.3333H464.067C452 88.3333 443.633 80.7333 441.267 70.0667L439.9 63.8667C439.233 60.8333 441.033 57.4 443.933 56.2333L448.667 54.3333L467.033 46.9667C468.633 46.3333 470.333 46 472 46C473.667 46 475.367 46.3333 476.967 46.9667L495.333 54.3333L500.067 56.2333C502.967 57.4 504.767 60.8333 504.1 63.8667Z" fill="#1C2C5E"/>
<path d="M495.333 41.6666V46.4666C495.333 47.6333 494.133 48.4666 493.033 48L478.8 42.3C474.433 40.6 469.567 40.6 465.167 42.3333L450.967 48.0333C449.867 48.5 448.667 47.6666 448.667 46.5V41.6666C448.667 36.1666 453.167 31.6666 458.667 31.6666H485.333C490.833 31.6666 495.333 36.1666 495.333 41.6666Z" fill="#1C2C5E"/>
<path d="M480.333 31.6666H463.667V25C463.667 23.1666 465.167 21.6666 467 21.6666H477C478.833 21.6666 480.333 23.1666 480.333 25V31.6666Z" fill="#1C2C5E"/>
</svg>
